<mxfile host="app.diagrams.net" modified="2022-03-23T01:20:00.016Z" agent="5.0 (Windows NT 10.0; Win64; x64) AppleWebKit/537.36 (KHTML, like Gecko) Chrome/99.0.4844.74 Safari/537.36 Edg/99.0.1150.46" etag="1zyaMYOUVJAXG3juKiL4" version="17.1.5" type="github">
  <diagram id="YrswU_z8fAAdRPMfHeVJ" name="Page-1">
    <mxGraphModel dx="1422" dy="754" grid="1" gridSize="10" guides="1" tooltips="1" connect="1" arrows="1" fold="1" page="1" pageScale="1" pageWidth="827" pageHeight="1169" math="0" shadow="0">
      <root>
        <mxCell id="0" />
        <mxCell id="1" parent="0" />
        <mxCell id="V8lAqCsc635vuAUcFSqK-1" value="数据库" style="shape=datastore;whiteSpace=wrap;html=1;" vertex="1" parent="1">
          <mxGeometry x="386" y="585" width="60" height="60" as="geometry" />
        </mxCell>
        <mxCell id="V8lAqCsc635vuAUcFSqK-7" value="RESTful API请求交互" style="edgeStyle=orthogonalEdgeStyle;rounded=0;orthogonalLoop=1;jettySize=auto;html=1;startArrow=classic;startFill=1;" edge="1" parent="1" source="V8lAqCsc635vuAUcFSqK-5" target="V8lAqCsc635vuAUcFSqK-6">
          <mxGeometry relative="1" as="geometry" />
        </mxCell>
        <mxCell id="V8lAqCsc635vuAUcFSqK-9" value="SignalR实时通信" style="edgeStyle=orthogonalEdgeStyle;rounded=0;orthogonalLoop=1;jettySize=auto;html=1;entryX=1;entryY=0.5;entryDx=0;entryDy=0;startArrow=classic;startFill=1;" edge="1" parent="1" source="V8lAqCsc635vuAUcFSqK-5" target="V8lAqCsc635vuAUcFSqK-6">
          <mxGeometry relative="1" as="geometry">
            <Array as="points">
              <mxPoint x="550" y="136" />
              <mxPoint x="550" y="370" />
            </Array>
          </mxGeometry>
        </mxCell>
        <mxCell id="V8lAqCsc635vuAUcFSqK-5" value="" style="aspect=fixed;html=1;points=[];align=center;image;fontSize=12;image=img/lib/azure2/general/Browser.svg;" vertex="1" parent="1">
          <mxGeometry x="381" y="110" width="65" height="52" as="geometry" />
        </mxCell>
        <mxCell id="V8lAqCsc635vuAUcFSqK-8" value="ASP.NET 数据库操作" style="edgeStyle=orthogonalEdgeStyle;rounded=0;orthogonalLoop=1;jettySize=auto;html=1;entryX=0.5;entryY=0;entryDx=0;entryDy=0;startArrow=classic;startFill=1;" edge="1" parent="1" source="V8lAqCsc635vuAUcFSqK-6" target="V8lAqCsc635vuAUcFSqK-1">
          <mxGeometry relative="1" as="geometry" />
        </mxCell>
        <mxCell id="V8lAqCsc635vuAUcFSqK-6" value="" style="image;html=1;image=img/lib/clip_art/computers/Server_128x128.png" vertex="1" parent="1">
          <mxGeometry x="374" y="330" width="80" height="80" as="geometry" />
        </mxCell>
        <mxCell id="V8lAqCsc635vuAUcFSqK-13" value="SignalR实时通信" style="edgeStyle=orthogonalEdgeStyle;rounded=0;orthogonalLoop=1;jettySize=auto;html=1;entryX=0;entryY=0.5;entryDx=0;entryDy=0;startArrow=classic;startFill=1;" edge="1" parent="1" source="V8lAqCsc635vuAUcFSqK-10" target="V8lAqCsc635vuAUcFSqK-6">
          <mxGeometry relative="1" as="geometry">
            <Array as="points">
              <mxPoint x="171" y="370" />
            </Array>
          </mxGeometry>
        </mxCell>
        <mxCell id="V8lAqCsc635vuAUcFSqK-10" value="" style="aspect=fixed;html=1;points=[];align=center;image;fontSize=12;image=img/lib/azure2/general/Browser.svg;" vertex="1" parent="1">
          <mxGeometry x="140" y="110" width="62.5" height="50" as="geometry" />
        </mxCell>
        <mxCell id="V8lAqCsc635vuAUcFSqK-12" value="SignalR实时通信" style="edgeStyle=orthogonalEdgeStyle;rounded=0;orthogonalLoop=1;jettySize=auto;html=1;entryX=1;entryY=0.5;entryDx=0;entryDy=0;startArrow=classic;startFill=1;" edge="1" parent="1" source="V8lAqCsc635vuAUcFSqK-11" target="V8lAqCsc635vuAUcFSqK-6">
          <mxGeometry relative="1" as="geometry">
            <Array as="points">
              <mxPoint x="663" y="370" />
            </Array>
          </mxGeometry>
        </mxCell>
        <mxCell id="V8lAqCsc635vuAUcFSqK-11" value="" style="aspect=fixed;html=1;points=[];align=center;image;fontSize=12;image=img/lib/azure2/general/Browser.svg;" vertex="1" parent="1">
          <mxGeometry x="630" y="110" width="65" height="52" as="geometry" />
        </mxCell>
      </root>
    </mxGraphModel>
  </diagram>
</mxfile>
